<?xml version="1.0" standalone="no"?>
<!DOCTYPE svg PUBLIC "-//W3C//DTD SVG 20010904//EN"
 "http://www.w3.org/TR/2001/REC-SVG-20010904/DTD/svg10.dtd">
<svg version="1.0" xmlns="http://www.w3.org/2000/svg"
 width="1280.000000pt" height="901.000000pt" viewBox="0 0 1280.000000 901.000000"
 preserveAspectRatio="xMidYMid meet">
<metadata>
Created by potrace 1.15, written by Peter Selinger 2001-2017
</metadata>
<g transform="translate(0.000000,901.000000) scale(0.100000,-0.100000)"
fill="#ffeb3b" stroke="none">
<path d="M12090 8969 c-1960 -288 -3568 -834 -5115 -1737 -651 -380 -1307
-842 -2090 -1472 -1187 -955 -1342 -1074 -1750 -1343 -878 -577 -1781 -914
-2963 -1104 l-174 -28 6 -29 c3 -15 6 -38 6 -50 0 -45 11 -49 96 -36 44 6 86
13 95 16 13 3 18 -5 23 -33 4 -21 9 -50 12 -64 l5 -27 -100 -12 c-70 -9 -101
-17 -101 -26 0 -46 24 -164 34 -164 11 0 305 50 401 69 27 5 50 9 51 8 0 -1 8
-36 17 -77 9 -41 126 -572 261 -1180 134 -608 247 -1121 251 -1141 l7 -35
-119 -23 c-65 -12 -205 -38 -312 -57 -107 -18 -196 -36 -199 -38 -2 -3 -1 -30
3 -61 8 -64 2 -62 123 -39 70 13 86 13 93 2 10 -16 23 -97 17 -104 -3 -2 -49
-13 -102 -23 -54 -11 -99 -21 -101 -23 -3 -3 15 -131 19 -136 2 -1 99 14 216
33 1691 280 3156 875 4606 1872 444 305 703 502 1544 1173 949 757 1205 948
1655 1234 976 622 2016 1009 3387 1260 232 43 601 101 811 127 l98 13 -5 35
c-3 20 -11 79 -17 131 -25 204 -36 265 -45 264 -5 -1 -31 -4 -59 -8 l-50 -6
-159 1223 c-87 672 -159 1229 -160 1237 0 8 6 15 14 17 8 1 37 5 64 8 l48 7
-7 66 c-9 88 -12 92 -44 86 -27 -6 -28 -4 -38 55 -10 64 -6 71 37 71 15 0 17
6 13 43 -6 57 -10 67 -25 66 -7 0 -132 -18 -278 -40z m124 -129 c3 -16 9 -43
12 -60 6 -33 14 -30 -125 -55 -122 -22 -117 -24 -128 44 l-9 60 70 12 c39 6
89 15 111 19 62 12 63 12 69 -20z m-370 -57 c2 -10 7 -36 11 -59 l6 -41 -116
-23 c-95 -19 -119 -21 -125 -10 -9 15 -24 100 -18 105 5 5 189 43 215 44 13 1
24 -6 27 -16z m-358 -116 c6 -31 10 -57 8 -57 -1 0 -55 -11 -120 -25 -64 -14
-118 -24 -119 -23 -7 8 -25 112 -20 116 8 8 207 51 225 49 9 -1 18 -23 26 -60z
m-368 -68 c7 -28 12 -54 12 -59 0 -10 -228 -65 -236 -57 -6 6 -34 110 -31 113
5 4 213 53 228 53 11 1 19 -15 27 -50z m-362 -94 c8 -31 14 -58 12 -59 -6 -4
-216 -56 -227 -56 -10 0 -47 107 -39 115 5 5 232 62 236 59 2 -1 10 -28 18
-59z m978 -112 c17 -114 105 -683 280 -1803 74 -476 81 -536 67 -542 -9 -4
-83 -19 -166 -33 -465 -82 -1064 -228 -1521 -373 l-91 -29 -16 56 c-9 31 -102
360 -207 731 -397 1399 -449 1585 -445 1588 2 2 82 29 177 59 519 164 1096
309 1633 412 116 22 219 42 230 44 11 3 25 5 31 6 6 1 18 -49 28 -116z m-1344
35 c6 -24 13 -50 16 -59 3 -12 -19 -22 -109 -47 -63 -18 -117 -32 -120 -32 -7
0 -41 110 -35 115 5 5 210 63 225 64 7 1 17 -18 23 -41z m-356 -114 c10 -31
16 -58 14 -60 -6 -5 -231 -74 -234 -71 -8 11 -35 110 -30 114 5 5 212 71 227
73 3 0 13 -25 23 -56z m-360 -101 c9 -26 16 -52 16 -59 0 -15 -219 -89 -230
-78 -8 10 -42 106 -37 109 5 4 212 72 224 74 6 0 18 -20 27 -46z m-351 -129
c10 -31 17 -57 15 -59 -3 -3 -206 -74 -222 -78 -9 -2 -48 93 -43 107 3 8 200
84 222 85 6 1 18 -24 28 -55z m-352 -129 c10 -27 15 -52 11 -56 -4 -4 -54 -25
-112 -48 -78 -30 -106 -37 -112 -28 -13 20 -41 97 -37 101 11 11 206 85 218
83 7 -1 22 -24 32 -52z m-344 -141 l21 -51 -115 -48 c-63 -26 -115 -46 -117
-44 -5 9 -36 85 -38 98 -3 15 212 114 223 103 3 -4 15 -30 26 -58z m503 -534
c73 -206 163 -463 200 -570 38 -107 113 -323 168 -480 250 -711 282 -804 279
-806 -1 -2 -72 -32 -157 -67 -387 -162 -778 -359 -1132 -573 -78 -47 -145 -86
-149 -87 -5 -1 -278 482 -607 1074 l-599 1077 201 115 c486 277 951 505 1456
713 l175 72 17 -47 c9 -25 75 -215 148 -421z m-851 394 c13 -30 22 -56 20 -58
-9 -8 -209 -96 -217 -96 -11 0 -55 101 -47 108 5 6 207 101 216 101 3 1 16
-24 28 -55z m-337 -158 l27 -54 -112 -54 -112 -55 -28 54 c-16 30 -27 57 -25
59 6 5 212 103 218 104 3 0 18 -24 32 -54z m-337 -166 c14 -27 25 -51 25 -54
0 -5 -212 -117 -215 -113 -35 56 -55 101 -49 107 11 11 197 110 206 110 4 0
19 -22 33 -50z m-305 -225 c0 -12 -200 -126 -210 -120 -11 7 -63 96 -58 100 1
1 50 30 108 63 l105 60 27 -46 c15 -26 28 -51 28 -57z m-346 -139 c14 -25 26
-47 26 -49 0 -11 -200 -128 -210 -122 -17 11 -64 99 -55 102 6 2 53 30 105 62
52 32 98 57 102 55 3 -2 18 -24 32 -48z m-321 -191 c15 -25 27 -50 27 -54 0
-9 -185 -131 -198 -131 -10 1 -66 86 -63 96 3 9 190 133 201 134 3 0 17 -20
33 -45z m-307 -213 l31 -48 -31 -21 c-17 -11 -63 -44 -102 -71 l-72 -51 -35
52 -34 53 96 66 c53 37 101 67 106 67 6 1 24 -21 41 -47z m882 -1136 c359
-568 654 -1040 657 -1048 4 -10 -37 -45 -132 -113 -274 -197 -539 -400 -1033
-794 -146 -116 -267 -211 -270 -211 -6 0 -1553 1917 -1558 1930 -6 16 763 620
1141 895 177 128 530 374 538 375 3 0 299 -465 657 -1034z m-1188 919 l30 -44
-72 -54 c-91 -66 -128 -91 -131 -86 -2 2 -18 23 -36 47 -20 25 -30 47 -25 52
27 27 190 138 196 134 4 -3 21 -25 38 -49z m-302 -219 l32 -45 -99 -75 -100
-76 -37 51 c-35 48 -36 51 -18 64 11 7 55 40 99 73 44 33 82 59 85 57 3 -2 20
-24 38 -49z m-300 -221 c17 -24 32 -46 32 -49 0 -7 -179 -146 -189 -146 -5 0
-25 20 -45 44 l-35 44 97 76 c53 42 99 76 102 76 3 -1 20 -21 38 -45z m7227
-2 c4 -27 7 -55 8 -63 2 -14 -14 -18 -194 -44 l-47 -7 -10 58 c-5 32 -8 60 -6
62 3 3 55 12 117 22 61 9 115 17 119 18 4 0 10 -20 13 -46z m-367 -70 c6 -32
9 -59 7 -61 -2 -2 -223 -42 -236 -42 -3 0 -11 27 -16 60 l-10 60 31 5 c109 21
183 33 198 34 12 1 18 -13 26 -56z m-374 -30 c3 -16 8 -44 11 -63 l6 -36 -117
-22 c-64 -12 -120 -20 -123 -17 -3 4 -11 31 -16 60 l-11 54 50 11 c28 5 80 16
116 24 36 8 68 14 72 15 3 1 9 -11 12 -26z m-359 -114 l12 -56 -116 -27 c-64
-14 -119 -26 -122 -26 -8 0 -32 110 -26 117 9 8 201 52 222 50 15 -2 22 -14
30 -58z m-6395 -50 c8 -14 -9 -31 -87 -94 l-96 -77 -19 24 c-10 12 -27 35 -38
49 l-19 26 97 77 96 77 28 -33 c16 -18 33 -40 38 -49z m6029 -25 c7 -31 9 -59
4 -64 -9 -8 -224 -63 -228 -58 -2 2 -10 28 -18 59 l-14 57 111 30 c61 16 116
30 122 31 6 1 16 -24 23 -55z m-369 -68 c5 -13 12 -39 15 -58 l7 -34 -109 -32
c-59 -18 -113 -32 -118 -32 -6 0 -17 25 -26 56 -19 64 -31 54 106 96 111 33
113 33 125 4z m-5976 -110 l36 -44 -96 -78 -97 -78 -38 45 c-21 24 -37 47 -36
50 4 12 172 147 183 148 7 1 28 -19 48 -43z m5625 -26 c7 -27 12 -53 12 -57
-1 -6 -97 -42 -211 -78 -12 -4 -20 9 -35 50 -11 34 -15 59 -9 64 11 11 192 70
215 71 10 0 19 -16 28 -50z m-355 -117 c9 -27 17 -52 18 -56 2 -5 -48 -28
-110 -52 -126 -48 -117 -50 -147 34 l-13 39 101 40 c56 22 110 41 119 41 11 1
21 -14 32 -46z m-5566 -85 c18 -23 32 -45 32 -49 0 -4 -42 -41 -94 -83 l-95
-76 -37 51 c-20 27 -35 52 -33 53 19 19 184 146 189 146 3 0 20 -19 38 -42z
m5220 -54 c13 -31 22 -57 20 -58 -2 -1 -52 -23 -113 -49 -81 -34 -111 -43
-117 -34 -14 21 -41 97 -37 102 5 5 211 94 219 95 3 0 15 -25 28 -56z m-342
-153 l23 -52 -105 -50 c-58 -27 -109 -49 -113 -49 -4 0 -19 24 -33 53 l-26 52
106 52 c59 28 111 50 116 49 5 -1 19 -26 32 -55z m-5136 -73 c0 -8 -179 -148
-190 -148 -4 0 -24 20 -44 44 l-36 45 97 76 98 77 37 -44 c21 -23 38 -46 38
-50z m4800 -87 c13 -28 22 -53 19 -54 -15 -13 -199 -107 -208 -107 -14 0 -67
103 -55 107 5 2 54 28 109 57 55 30 102 52 105 51 3 -2 17 -26 30 -54z m-3952
-1015 c403 -541 734 -991 737 -999 4 -10 -71 -72 -247 -204 -436 -327 -826
-593 -1212 -825 -162 -97 -181 -106 -191 -90 -35 51 -1245 2091 -1245 2099 0
4 58 42 128 83 282 166 681 447 1086 762 110 87 204 158 207 158 3 0 335 -443
737 -984z m-1179 922 c17 -23 31 -45 31 -49 0 -6 -185 -149 -193 -149 -8 0
-68 91 -65 99 4 11 179 141 189 141 4 0 21 -19 38 -42z m4804 -90 l27 -46
-103 -59 c-56 -32 -106 -58 -110 -58 -4 0 -21 23 -37 51 l-29 50 107 61 c59
34 110 59 113 55 3 -4 18 -28 32 -54z m-5105 -132 c18 -24 32 -47 32 -50 0 -8
-186 -136 -198 -136 -9 0 -67 79 -67 92 0 7 186 138 196 138 3 0 20 -20 37
-44z m4804 -107 c-4 -3 -51 -33 -105 -67 l-97 -62 -34 52 c-19 29 -33 54 -32
54 0 1 48 31 106 68 l105 65 32 -52 c17 -29 29 -55 25 -58z m-5112 -103 c16
-25 30 -47 30 -51 0 -5 -195 -135 -204 -135 -6 0 -69 100 -65 104 14 12 195
126 201 126 4 0 21 -20 38 -44z m4776 -47 l33 -46 -103 -71 -103 -71 -31 45
c-18 24 -32 49 -32 54 0 11 182 140 194 137 4 -2 23 -23 42 -48z m-5092 -153
c14 -25 26 -48 26 -53 0 -8 -193 -123 -207 -123 -12 0 -67 104 -57 107 5 2 50
28 99 58 50 30 95 54 102 55 6 0 23 -20 37 -44z m4787 -62 c17 -25 29 -47 27
-48 -1 -2 -46 -35 -99 -74 l-96 -70 -37 50 c-36 47 -37 51 -19 63 10 7 54 40
98 73 44 32 83 57 87 55 4 -2 22 -24 39 -49z m-5106 -134 l25 -49 -111 -56
c-61 -31 -112 -55 -114 -53 -1 1 -14 27 -29 55 l-26 53 107 54 c60 30 111 52
116 49 4 -2 18 -26 32 -53z m4804 -86 c29 -38 32 -47 20 -58 -30 -28 -172
-136 -179 -136 -9 0 -70 77 -70 89 0 10 177 151 189 151 3 0 21 -21 40 -46z
m-5144 -71 c11 -26 21 -51 23 -55 3 -6 -161 -88 -206 -102 -15 -5 -23 5 -41
49 -13 31 -22 57 -20 59 13 9 206 95 214 95 6 1 19 -20 30 -46z m-338 -158
c11 -30 18 -57 14 -59 -13 -8 -212 -86 -219 -86 -9 0 -43 89 -41 105 1 9 190
92 214 94 6 1 20 -24 32 -54z m5187 -1 c21 -25 36 -47 35 -49 -2 -1 -46 -37
-98 -79 l-93 -76 -37 46 c-20 26 -35 50 -34 53 3 7 176 150 183 150 3 1 23
-20 44 -45z m-4135 -1127 c297 -604 541 -1102 541 -1106 0 -14 -439 -214 -715
-326 -315 -128 -692 -259 -1010 -351 -104 -30 -198 -57 -207 -60 -13 -4 -21
11 -42 78 -50 168 -656 2287 -656 2296 0 6 24 17 53 25 28 8 127 36 220 61
387 108 797 261 1187 444 47 22 86 39 86 38 1 0 245 -495 543 -1099z m-1401
994 l20 -60 -118 -39 -119 -40 -19 58 -20 58 111 40 c62 22 115 40 119 41 3 0
15 -26 26 -58z m5269 -132 c12 -15 3 -25 -77 -93 -51 -42 -95 -76 -99 -76 -4
0 -23 20 -44 44 l-37 45 97 79 96 80 26 -32 c13 -17 31 -38 38 -47z m-5628 29
c7 -24 14 -50 17 -59 4 -13 -17 -23 -112 -49 -64 -17 -119 -28 -124 -23 -8 9
-33 104 -28 108 5 6 203 63 219 64 10 1 20 -14 28 -41z m-361 -97 c24 -77 24
-76 -100 -105 -62 -14 -116 -26 -119 -26 -8 0 -32 110 -26 116 7 7 188 52 213
53 16 1 24 -8 32 -38z m-360 -98 c6 -31 10 -58 8 -60 -4 -5 -207 -43 -227 -43
-13 0 -20 15 -27 58 -6 31 -9 58 -8 59 3 3 202 41 221 42 17 1 23 -8 33 -56z
m6062 -75 c8 -14 -6 -30 -82 -92 -51 -42 -96 -75 -100 -74 -3 2 -22 23 -41 47
l-35 44 96 79 96 80 28 -34 c16 -18 33 -41 38 -50z m-314 -204 c32 -38 35 -47
23 -58 -8 -7 -51 -43 -96 -79 l-81 -67 -40 48 -41 48 92 77 c51 42 95 76 99
76 4 1 23 -19 44 -45z m-276 -256 l20 -26 -96 -76 c-53 -42 -99 -74 -103 -72
-3 2 -21 24 -38 49 l-33 45 98 75 97 76 18 -22 c10 -12 26 -34 37 -49z m-312
-203 c17 -24 32 -48 32 -52 -1 -4 -44 -40 -98 -80 l-97 -71 -33 46 c-18 25
-31 50 -29 55 3 9 178 146 187 146 3 0 20 -20 38 -44z m-299 -226 c19 -27 32
-51 30 -53 -15 -14 -193 -136 -198 -136 -9 1 -65 86 -63 96 2 8 181 141 192
143 3 0 20 -22 39 -50z m-310 -207 c17 -27 31 -52 31 -55 0 -7 -171 -124 -193
-133 -8 -3 -27 16 -46 48 -18 29 -29 54 -24 55 4 2 51 32 103 67 52 36 96 65
96 65 1 1 16 -21 33 -47z m-310 -209 c23 -37 28 -50 18 -59 -18 -16 -199 -126
-202 -122 -22 28 -56 101 -49 108 12 12 187 119 195 120 4 0 21 -21 38 -47z
m-321 -195 l31 -52 -102 -58 c-56 -32 -106 -58 -112 -58 -13 0 -68 104 -58
108 5 1 51 27 103 57 52 29 98 54 102 54 3 1 20 -22 36 -51z m-326 -181 l26
-53 -110 -58 c-60 -32 -111 -57 -112 -55 -2 2 -15 27 -30 56 l-26 52 103 54
c56 30 107 55 112 56 6 0 23 -23 37 -52z m-336 -164 c10 -27 19 -51 19 -56 0
-6 -200 -106 -216 -107 -6 0 -53 110 -48 113 16 11 206 97 215 97 6 0 20 -21
30 -47z m-338 -159 c13 -31 22 -58 20 -59 -4 -3 -219 -95 -223 -95 -9 0 -47
114 -39 117 5 2 54 23 109 47 55 25 102 45 105 45 3 1 15 -24 28 -55z m-347
-141 c11 -25 18 -52 15 -58 -2 -6 -46 -28 -98 -48 -51 -19 -100 -38 -109 -42
-12 -4 -21 7 -38 52 -12 32 -18 59 -14 61 140 57 200 80 211 81 7 1 22 -20 33
-46z m-347 -139 c10 -31 16 -57 14 -59 -3 -3 -228 -83 -228 -81 0 1 -9 26 -20
55 -11 30 -17 57 -14 60 6 7 205 79 220 80 6 1 18 -24 28 -55z m-359 -105 c29
-84 38 -73 -89 -113 -63 -20 -117 -36 -120 -36 -6 0 -40 110 -34 114 8 8 214
74 222 72 5 -1 15 -18 21 -37z m-351 -125 c10 -31 15 -58 12 -61 -6 -6 -229
-73 -232 -70 -7 8 -33 112 -28 116 4 5 207 68 225 70 3 1 13 -24 23 -55z
m-359 -105 c8 -30 11 -57 7 -60 -12 -11 -213 -61 -226 -56 -10 4 -41 107 -34
112 7 4 233 62 236 60 2 -2 10 -27 17 -56z m-365 -81 c6 -24 13 -50 16 -59 3
-12 -18 -21 -110 -42 -62 -15 -118 -27 -123 -27 -10 0 -38 108 -31 115 5 6
198 53 220 54 12 1 20 -11 28 -41z m-361 -95 c6 -31 8 -60 4 -64 -15 -12 -225
-51 -233 -43 -4 5 -12 32 -17 60 l-10 52 111 25 c61 14 116 26 122 26 6 1 16
-25 23 -56z"/>
</g>
</svg>
